<?xml version="1.0" encoding="utf-8" standalone="no"?>
<!DOCTYPE svg PUBLIC "-//W3C//DTD SVG 1.1//EN"
  "http://www.w3.org/Graphics/SVG/1.1/DTD/svg11.dtd">
<svg xmlns:xlink="http://www.w3.org/1999/xlink" width="335.490625pt" height="299.4pt" viewBox="0 0 335.490625 299.4" xmlns="http://www.w3.org/2000/svg" version="1.1">
 <metadata>
  <rdf:RDF xmlns:dc="http://purl.org/dc/elements/1.1/" xmlns:cc="http://creativecommons.org/ns#" xmlns:rdf="http://www.w3.org/1999/02/22-rdf-syntax-ns#">
   <cc:Work>
    <dc:type rdf:resource="http://purl.org/dc/dcmitype/StillImage"/>
    <dc:date>2026-07-18T16:38:14.791013</dc:date>
    <dc:format>image/svg+xml</dc:format>
    <dc:creator>
     <cc:Agent>
      <dc:title>Matplotlib v3.9.0, https://matplotlib.org/</dc:title>
     </cc:Agent>
    </dc:creator>
   </cc:Work>
  </rdf:RDF>
 </metadata>
 <defs>
  <style type="text/css">*{stroke-linejoin: round; stroke-linecap: butt}</style>
 </defs>
 <g id="figure_1">
  <g id="patch_1">
   <path d="M 0 299.4
L 335.490625 299.4
L 335.490625 0
L 0 0
z
" style="fill: #ffffff"/>
  </g>
  <g id="axes_1">
   <g id="patch_2">
    <path d="M 52.890625 295.8
L 331.890625 295.8
L 331.890625 18.6
L 52.890625 18.6
z
" style="fill: #ffffff"/>
   </g>
   <g id="matplotlib.axis_1"/>
   <g id="matplotlib.axis_2">
    <g id="ytick_1">
     <g id="line2d_1">
      <defs>
       <path id="mea1d180657" d="M 0 0
L 3 0
" style="stroke: #000000; stroke-width: 0.5"/>
      </defs>
      <g>
       <use xlink:href="#mea1d180657" x="52.890625" y="283.2" style="stroke: #000000; stroke-width: 0.5"/>
      </g>
     </g>
     <g id="line2d_2">
      <defs>
       <path id="m207a4854d8" d="M 0 0
L -3 0
" style="stroke: #000000; stroke-width: 0.5"/>
      </defs>
      <g>
       <use xlink:href="#m207a4854d8" x="331.890625" y="283.2" style="stroke: #000000; stroke-width: 0.5"/>
      </g>
     </g>
     <g id="text_1">
      <!-- $\mathdefault{0.00000}$ -->
      <g transform="translate(16.590625 286.669531) scale(0.1 -0.1)">
       <defs>
        <path id="Cmr10-30" d="M 1600 -141
Q 816 -141 533 504
Q 250 1150 250 2041
Q 250 2597 351 3087
Q 453 3578 754 3920
Q 1056 4263 1600 4263
Q 2022 4263 2290 4056
Q 2559 3850 2700 3523
Q 2841 3197 2892 2823
Q 2944 2450 2944 2041
Q 2944 1491 2842 1011
Q 2741 531 2444 195
Q 2147 -141 1600 -141
z
M 1600 25
Q 1956 25 2131 390
Q 2306 756 2347 1200
Q 2388 1644 2388 2144
Q 2388 2625 2347 3031
Q 2306 3438 2132 3767
Q 1959 4097 1600 4097
Q 1238 4097 1063 3765
Q 888 3434 847 3029
Q 806 2625 806 2144
Q 806 1788 823 1472
Q 841 1156 916 820
Q 991 484 1158 254
Q 1325 25 1600 25
z
" transform="scale(0.015625)"/>
        <path id="Cmr10-2e" d="M 538 353
Q 538 497 644 600
Q 750 703 891 703
Q 978 703 1062 656
Q 1147 609 1194 525
Q 1241 441 1241 353
Q 1241 213 1137 106
Q 1034 0 891 0
Q 750 0 644 106
Q 538 213 538 353
z
" transform="scale(0.015625)"/>
       </defs>
       <use xlink:href="#Cmr10-30" transform="translate(0 0.390625)"/>
       <use xlink:href="#Cmr10-2e" transform="translate(50 0.390625)"/>
       <use xlink:href="#Cmr10-30" transform="translate(77.685547 0.390625)"/>
       <use xlink:href="#Cmr10-30" transform="translate(127.685547 0.390625)"/>
       <use xlink:href="#Cmr10-30" transform="translate(177.685547 0.390625)"/>
       <use xlink:href="#Cmr10-30" transform="translate(227.685547 0.390625)"/>
       <use xlink:href="#Cmr10-30" transform="translate(277.685547 0.390625)"/>
      </g>
     </g>
    </g>
    <g id="ytick_2">
     <g id="line2d_3">
      <g>
       <use xlink:href="#mea1d180657" x="52.890625" y="233.188476" style="stroke: #000000; stroke-width: 0.5"/>
      </g>
     </g>
     <g id="line2d_4">
      <g>
       <use xlink:href="#m207a4854d8" x="331.890625" y="233.188476" style="stroke: #000000; stroke-width: 0.5"/>
      </g>
     </g>
     <g id="text_2">
      <!-- $\mathdefault{0.00005}$ -->
      <g transform="translate(16.590625 236.658007) scale(0.1 -0.1)">
       <defs>
        <path id="Cmr10-35" d="M 556 728
Q 622 541 758 387
Q 894 234 1080 148
Q 1266 63 1466 63
Q 1928 63 2103 422
Q 2278 781 2278 1294
Q 2278 1516 2270 1667
Q 2263 1819 2228 1959
Q 2169 2184 2020 2353
Q 1872 2522 1656 2522
Q 1441 2522 1286 2456
Q 1131 2391 1034 2303
Q 938 2216 863 2119
Q 788 2022 769 2016
L 697 2016
Q 681 2016 657 2036
Q 634 2056 634 2075
L 634 4213
Q 634 4228 654 4245
Q 675 4263 697 4263
L 716 4263
Q 1147 4056 1631 4056
Q 2106 4056 2547 4263
L 2566 4263
Q 2588 4263 2606 4247
Q 2625 4231 2625 4213
L 2625 4153
Q 2625 4122 2613 4122
Q 2394 3831 2064 3668
Q 1734 3506 1381 3506
Q 1125 3506 856 3578
L 856 2369
Q 1069 2541 1236 2614
Q 1403 2688 1663 2688
Q 2016 2688 2295 2484
Q 2575 2281 2725 1954
Q 2875 1628 2875 1288
Q 2875 903 2686 575
Q 2497 247 2172 53
Q 1847 -141 1466 -141
Q 1150 -141 886 21
Q 622 184 470 459
Q 319 734 319 1044
Q 319 1188 412 1278
Q 506 1369 647 1369
Q 788 1369 883 1276
Q 978 1184 978 1044
Q 978 906 883 811
Q 788 716 647 716
Q 625 716 597 720
Q 569 725 556 728
z
" transform="scale(0.015625)"/>
       </defs>
       <use xlink:href="#Cmr10-30" transform="translate(0 0.390625)"/>
       <use xlink:href="#Cmr10-2e" transform="translate(50 0.390625)"/>
       <use xlink:href="#Cmr10-30" transform="translate(77.685547 0.390625)"/>
       <use xlink:href="#Cmr10-30" transform="translate(127.685547 0.390625)"/>
       <use xlink:href="#Cmr10-30" transform="translate(177.685547 0.390625)"/>
       <use xlink:href="#Cmr10-30" transform="translate(227.685547 0.390625)"/>
       <use xlink:href="#Cmr10-35" transform="translate(277.685547 0.390625)"/>
      </g>
     </g>
    </g>
    <g id="ytick_3">
     <g id="line2d_5">
      <g>
       <use xlink:href="#mea1d180657" x="52.890625" y="183.176952" style="stroke: #000000; stroke-width: 0.5"/>
      </g>
     </g>
     <g id="line2d_6">
      <g>
       <use xlink:href="#m207a4854d8" x="331.890625" y="183.176952" style="stroke: #000000; stroke-width: 0.5"/>
      </g>
     </g>
     <g id="text_3">
      <!-- $\mathdefault{0.00010}$ -->
      <g transform="translate(16.590625 186.646483) scale(0.1 -0.1)">
       <defs>
        <path id="Cmr10-31" d="M 594 0
L 594 225
Q 1394 225 1394 428
L 1394 3788
Q 1063 3628 556 3628
L 556 3853
Q 1341 3853 1741 4263
L 1831 4263
Q 1853 4263 1873 4245
Q 1894 4228 1894 4206
L 1894 428
Q 1894 225 2694 225
L 2694 0
L 594 0
z
" transform="scale(0.015625)"/>
       </defs>
       <use xlink:href="#Cmr10-30" transform="translate(0 0.390625)"/>
       <use xlink:href="#Cmr10-2e" transform="translate(50 0.390625)"/>
       <use xlink:href="#Cmr10-30" transform="translate(77.685547 0.390625)"/>
       <use xlink:href="#Cmr10-30" transform="translate(127.685547 0.390625)"/>
       <use xlink:href="#Cmr10-30" transform="translate(177.685547 0.390625)"/>
       <use xlink:href="#Cmr10-31" transform="translate(227.685547 0.390625)"/>
       <use xlink:href="#Cmr10-30" transform="translate(277.685547 0.390625)"/>
      </g>
     </g>
    </g>
    <g id="ytick_4">
     <g id="line2d_7">
      <g>
       <use xlink:href="#mea1d180657" x="52.890625" y="133.165427" style="stroke: #000000; stroke-width: 0.5"/>
      </g>
     </g>
     <g id="line2d_8">
      <g>
       <use xlink:href="#m207a4854d8" x="331.890625" y="133.165427" style="stroke: #000000; stroke-width: 0.5"/>
      </g>
     </g>
     <g id="text_4">
      <!-- $\mathdefault{0.00015}$ -->
      <g transform="translate(16.590625 136.634959) scale(0.1 -0.1)">
       <use xlink:href="#Cmr10-30" transform="translate(0 0.390625)"/>
       <use xlink:href="#Cmr10-2e" transform="translate(50 0.390625)"/>
       <use xlink:href="#Cmr10-30" transform="translate(77.685547 0.390625)"/>
       <use xlink:href="#Cmr10-30" transform="translate(127.685547 0.390625)"/>
       <use xlink:href="#Cmr10-30" transform="translate(177.685547 0.390625)"/>
       <use xlink:href="#Cmr10-31" transform="translate(227.685547 0.390625)"/>
       <use xlink:href="#Cmr10-35" transform="translate(277.685547 0.390625)"/>
      </g>
     </g>
    </g>
    <g id="ytick_5">
     <g id="line2d_9">
      <g>
       <use xlink:href="#mea1d180657" x="52.890625" y="83.153903" style="stroke: #000000; stroke-width: 0.5"/>
      </g>
     </g>
     <g id="line2d_10">
      <g>
       <use xlink:href="#m207a4854d8" x="331.890625" y="83.153903" style="stroke: #000000; stroke-width: 0.5"/>
      </g>
     </g>
     <g id="text_5">
      <!-- $\mathdefault{0.00020}$ -->
      <g transform="translate(16.590625 86.623435) scale(0.1 -0.1)">
       <defs>
        <path id="Cmr10-32" d="M 319 0
L 319 172
Q 319 188 331 206
L 1325 1306
Q 1550 1550 1690 1715
Q 1831 1881 1968 2097
Q 2106 2313 2186 2536
Q 2266 2759 2266 3009
Q 2266 3272 2169 3511
Q 2072 3750 1880 3894
Q 1688 4038 1416 4038
Q 1138 4038 916 3870
Q 694 3703 603 3438
Q 628 3444 672 3444
Q 816 3444 917 3347
Q 1019 3250 1019 3097
Q 1019 2950 917 2848
Q 816 2747 672 2747
Q 522 2747 420 2851
Q 319 2956 319 3097
Q 319 3338 409 3548
Q 500 3759 670 3923
Q 841 4088 1055 4175
Q 1269 4263 1509 4263
Q 1875 4263 2190 4108
Q 2506 3953 2690 3670
Q 2875 3388 2875 3009
Q 2875 2731 2753 2481
Q 2631 2231 2440 2026
Q 2250 1822 1953 1562
Q 1656 1303 1563 1216
L 838 519
L 1453 519
Q 1906 519 2211 526
Q 2516 534 2534 550
Q 2609 631 2688 1141
L 2875 1141
L 2694 0
L 319 0
z
" transform="scale(0.015625)"/>
       </defs>
       <use xlink:href="#Cmr10-30" transform="translate(0 0.390625)"/>
       <use xlink:href="#Cmr10-2e" transform="translate(50 0.390625)"/>
       <use xlink:href="#Cmr10-30" transform="translate(77.685547 0.390625)"/>
       <use xlink:href="#Cmr10-30" transform="translate(127.685547 0.390625)"/>
       <use xlink:href="#Cmr10-30" transform="translate(177.685547 0.390625)"/>
       <use xlink:href="#Cmr10-32" transform="translate(227.685547 0.390625)"/>
       <use xlink:href="#Cmr10-30" transform="translate(277.685547 0.390625)"/>
      </g>
     </g>
    </g>
    <g id="ytick_6">
     <g id="line2d_11">
      <g>
       <use xlink:href="#mea1d180657" x="52.890625" y="33.142379" style="stroke: #000000; stroke-width: 0.5"/>
      </g>
     </g>
     <g id="line2d_12">
      <g>
       <use xlink:href="#m207a4854d8" x="331.890625" y="33.142379" style="stroke: #000000; stroke-width: 0.5"/>
      </g>
     </g>
     <g id="text_6">
      <!-- $\mathdefault{0.00025}$ -->
      <g transform="translate(16.590625 36.61191) scale(0.1 -0.1)">
       <use xlink:href="#Cmr10-30" transform="translate(0 0.390625)"/>
       <use xlink:href="#Cmr10-2e" transform="translate(50 0.390625)"/>
       <use xlink:href="#Cmr10-30" transform="translate(77.685547 0.390625)"/>
       <use xlink:href="#Cmr10-30" transform="translate(127.685547 0.390625)"/>
       <use xlink:href="#Cmr10-30" transform="translate(177.685547 0.390625)"/>
       <use xlink:href="#Cmr10-32" transform="translate(227.685547 0.390625)"/>
       <use xlink:href="#Cmr10-35" transform="translate(277.685547 0.390625)"/>
      </g>
     </g>
    </g>
    <g id="ytick_7">
     <g id="line2d_13">
      <defs>
       <path id="m73c020a7a2" d="M 0 0
L 1.5 0
" style="stroke: #000000; stroke-width: 0.5"/>
      </defs>
      <g>
       <use xlink:href="#m73c020a7a2" x="52.890625" y="293.202305" style="stroke: #000000; stroke-width: 0.5"/>
      </g>
     </g>
     <g id="line2d_14">
      <defs>
       <path id="m9ce066a3f9" d="M 0 0
L -1.5 0
" style="stroke: #000000; stroke-width: 0.5"/>
      </defs>
      <g>
       <use xlink:href="#m9ce066a3f9" x="331.890625" y="293.202305" style="stroke: #000000; stroke-width: 0.5"/>
      </g>
     </g>
    </g>
    <g id="ytick_8">
     <g id="line2d_15">
      <g>
       <use xlink:href="#m73c020a7a2" x="52.890625" y="273.197695" style="stroke: #000000; stroke-width: 0.5"/>
      </g>
     </g>
     <g id="line2d_16">
      <g>
       <use xlink:href="#m9ce066a3f9" x="331.890625" y="273.197695" style="stroke: #000000; stroke-width: 0.5"/>
      </g>
     </g>
    </g>
    <g id="ytick_9">
     <g id="line2d_17">
      <g>
       <use xlink:href="#m73c020a7a2" x="52.890625" y="263.19539" style="stroke: #000000; stroke-width: 0.5"/>
      </g>
     </g>
     <g id="line2d_18">
      <g>
       <use xlink:href="#m9ce066a3f9" x="331.890625" y="263.19539" style="stroke: #000000; stroke-width: 0.5"/>
      </g>
     </g>
    </g>
    <g id="ytick_10">
     <g id="line2d_19">
      <g>
       <use xlink:href="#m73c020a7a2" x="52.890625" y="253.193085" style="stroke: #000000; stroke-width: 0.5"/>
      </g>
     </g>
     <g id="line2d_20">
      <g>
       <use xlink:href="#m9ce066a3f9" x="331.890625" y="253.193085" style="stroke: #000000; stroke-width: 0.5"/>
      </g>
     </g>
    </g>
    <g id="ytick_11">
     <g id="line2d_21">
      <g>
       <use xlink:href="#m73c020a7a2" x="52.890625" y="243.190781" style="stroke: #000000; stroke-width: 0.5"/>
      </g>
     </g>
     <g id="line2d_22">
      <g>
       <use xlink:href="#m9ce066a3f9" x="331.890625" y="243.190781" style="stroke: #000000; stroke-width: 0.5"/>
      </g>
     </g>
    </g>
    <g id="ytick_12">
     <g id="line2d_23">
      <g>
       <use xlink:href="#m73c020a7a2" x="52.890625" y="223.186171" style="stroke: #000000; stroke-width: 0.5"/>
      </g>
     </g>
     <g id="line2d_24">
      <g>
       <use xlink:href="#m9ce066a3f9" x="331.890625" y="223.186171" style="stroke: #000000; stroke-width: 0.5"/>
      </g>
     </g>
    </g>
    <g id="ytick_13">
     <g id="line2d_25">
      <g>
       <use xlink:href="#m73c020a7a2" x="52.890625" y="213.183866" style="stroke: #000000; stroke-width: 0.5"/>
      </g>
     </g>
     <g id="line2d_26">
      <g>
       <use xlink:href="#m9ce066a3f9" x="331.890625" y="213.183866" style="stroke: #000000; stroke-width: 0.5"/>
      </g>
     </g>
    </g>
    <g id="ytick_14">
     <g id="line2d_27">
      <g>
       <use xlink:href="#m73c020a7a2" x="52.890625" y="203.181561" style="stroke: #000000; stroke-width: 0.5"/>
      </g>
     </g>
     <g id="line2d_28">
      <g>
       <use xlink:href="#m9ce066a3f9" x="331.890625" y="203.181561" style="stroke: #000000; stroke-width: 0.5"/>
      </g>
     </g>
    </g>
    <g id="ytick_15">
     <g id="line2d_29">
      <g>
       <use xlink:href="#m73c020a7a2" x="52.890625" y="193.179256" style="stroke: #000000; stroke-width: 0.5"/>
      </g>
     </g>
     <g id="line2d_30">
      <g>
       <use xlink:href="#m9ce066a3f9" x="331.890625" y="193.179256" style="stroke: #000000; stroke-width: 0.5"/>
      </g>
     </g>
    </g>
    <g id="ytick_16">
     <g id="line2d_31">
      <g>
       <use xlink:href="#m73c020a7a2" x="52.890625" y="173.174647" style="stroke: #000000; stroke-width: 0.5"/>
      </g>
     </g>
     <g id="line2d_32">
      <g>
       <use xlink:href="#m9ce066a3f9" x="331.890625" y="173.174647" style="stroke: #000000; stroke-width: 0.5"/>
      </g>
     </g>
    </g>
    <g id="ytick_17">
     <g id="line2d_33">
      <g>
       <use xlink:href="#m73c020a7a2" x="52.890625" y="163.172342" style="stroke: #000000; stroke-width: 0.5"/>
      </g>
     </g>
     <g id="line2d_34">
      <g>
       <use xlink:href="#m9ce066a3f9" x="331.890625" y="163.172342" style="stroke: #000000; stroke-width: 0.5"/>
      </g>
     </g>
    </g>
    <g id="ytick_18">
     <g id="line2d_35">
      <g>
       <use xlink:href="#m73c020a7a2" x="52.890625" y="153.170037" style="stroke: #000000; stroke-width: 0.5"/>
      </g>
     </g>
     <g id="line2d_36">
      <g>
       <use xlink:href="#m9ce066a3f9" x="331.890625" y="153.170037" style="stroke: #000000; stroke-width: 0.5"/>
      </g>
     </g>
    </g>
    <g id="ytick_19">
     <g id="line2d_37">
      <g>
       <use xlink:href="#m73c020a7a2" x="52.890625" y="143.167732" style="stroke: #000000; stroke-width: 0.5"/>
      </g>
     </g>
     <g id="line2d_38">
      <g>
       <use xlink:href="#m9ce066a3f9" x="331.890625" y="143.167732" style="stroke: #000000; stroke-width: 0.5"/>
      </g>
     </g>
    </g>
    <g id="ytick_20">
     <g id="line2d_39">
      <g>
       <use xlink:href="#m73c020a7a2" x="52.890625" y="123.163123" style="stroke: #000000; stroke-width: 0.5"/>
      </g>
     </g>
     <g id="line2d_40">
      <g>
       <use xlink:href="#m9ce066a3f9" x="331.890625" y="123.163123" style="stroke: #000000; stroke-width: 0.5"/>
      </g>
     </g>
    </g>
    <g id="ytick_21">
     <g id="line2d_41">
      <g>
       <use xlink:href="#m73c020a7a2" x="52.890625" y="113.160818" style="stroke: #000000; stroke-width: 0.5"/>
      </g>
     </g>
     <g id="line2d_42">
      <g>
       <use xlink:href="#m9ce066a3f9" x="331.890625" y="113.160818" style="stroke: #000000; stroke-width: 0.5"/>
      </g>
     </g>
    </g>
    <g id="ytick_22">
     <g id="line2d_43">
      <g>
       <use xlink:href="#m73c020a7a2" x="52.890625" y="103.158513" style="stroke: #000000; stroke-width: 0.5"/>
      </g>
     </g>
     <g id="line2d_44">
      <g>
       <use xlink:href="#m9ce066a3f9" x="331.890625" y="103.158513" style="stroke: #000000; stroke-width: 0.5"/>
      </g>
     </g>
    </g>
    <g id="ytick_23">
     <g id="line2d_45">
      <g>
       <use xlink:href="#m73c020a7a2" x="52.890625" y="93.156208" style="stroke: #000000; stroke-width: 0.5"/>
      </g>
     </g>
     <g id="line2d_46">
      <g>
       <use xlink:href="#m9ce066a3f9" x="331.890625" y="93.156208" style="stroke: #000000; stroke-width: 0.5"/>
      </g>
     </g>
    </g>
    <g id="ytick_24">
     <g id="line2d_47">
      <g>
       <use xlink:href="#m73c020a7a2" x="52.890625" y="73.151598" style="stroke: #000000; stroke-width: 0.5"/>
      </g>
     </g>
     <g id="line2d_48">
      <g>
       <use xlink:href="#m9ce066a3f9" x="331.890625" y="73.151598" style="stroke: #000000; stroke-width: 0.5"/>
      </g>
     </g>
    </g>
    <g id="ytick_25">
     <g id="line2d_49">
      <g>
       <use xlink:href="#m73c020a7a2" x="52.890625" y="63.149294" style="stroke: #000000; stroke-width: 0.5"/>
      </g>
     </g>
     <g id="line2d_50">
      <g>
       <use xlink:href="#m9ce066a3f9" x="331.890625" y="63.149294" style="stroke: #000000; stroke-width: 0.5"/>
      </g>
     </g>
    </g>
    <g id="ytick_26">
     <g id="line2d_51">
      <g>
       <use xlink:href="#m73c020a7a2" x="52.890625" y="53.146989" style="stroke: #000000; stroke-width: 0.5"/>
      </g>
     </g>
     <g id="line2d_52">
      <g>
       <use xlink:href="#m9ce066a3f9" x="331.890625" y="53.146989" style="stroke: #000000; stroke-width: 0.5"/>
      </g>
     </g>
    </g>
    <g id="ytick_27">
     <g id="line2d_53">
      <g>
       <use xlink:href="#m73c020a7a2" x="52.890625" y="43.144684" style="stroke: #000000; stroke-width: 0.5"/>
      </g>
     </g>
     <g id="line2d_54">
      <g>
       <use xlink:href="#m9ce066a3f9" x="331.890625" y="43.144684" style="stroke: #000000; stroke-width: 0.5"/>
      </g>
     </g>
    </g>
    <g id="ytick_28">
     <g id="line2d_55">
      <g>
       <use xlink:href="#m73c020a7a2" x="52.890625" y="23.140074" style="stroke: #000000; stroke-width: 0.5"/>
      </g>
     </g>
     <g id="line2d_56">
      <g>
       <use xlink:href="#m9ce066a3f9" x="331.890625" y="23.140074" style="stroke: #000000; stroke-width: 0.5"/>
      </g>
     </g>
    </g>
    <g id="text_7">
     <!-- Mean residual amplitude in CO band -->
     <g transform="translate(10.651562 238.969531) rotate(-90) scale(0.1 -0.1)">
      <defs>
       <path id="Cmr10-4d" d="M 225 0
L 225 225
Q 884 225 884 603
L 884 3944
Q 884 4147 225 4147
L 225 4372
L 1434 4372
Q 1513 4372 1538 4300
L 2931 678
L 4325 4300
Q 4350 4372 4428 4372
L 5638 4372
L 5638 4147
Q 4978 4147 4978 3944
L 4978 428
Q 4978 225 5638 225
L 5638 0
L 3775 0
L 3775 225
Q 4434 225 4434 428
L 4434 4153
L 2859 72
Q 2831 0 2753 0
Q 2672 0 2644 72
L 1088 4103
L 1088 603
Q 1088 225 1747 225
L 1747 0
L 225 0
z
" transform="scale(0.015625)"/>
       <path id="Cmr10-65" d="M 1594 -72
Q 1203 -72 876 133
Q 550 338 364 680
Q 178 1022 178 1403
Q 178 1778 348 2115
Q 519 2453 823 2661
Q 1128 2869 1503 2869
Q 1797 2869 2014 2770
Q 2231 2672 2372 2497
Q 2513 2322 2584 2084
Q 2656 1847 2656 1563
Q 2656 1478 2591 1478
L 738 1478
L 738 1409
Q 738 878 952 497
Q 1166 116 1650 116
Q 1847 116 2014 203
Q 2181 291 2304 447
Q 2428 603 2472 781
Q 2478 803 2495 820
Q 2513 838 2534 838
L 2591 838
Q 2656 838 2656 756
Q 2566 394 2266 161
Q 1966 -72 1594 -72
z
M 744 1638
L 2203 1638
Q 2203 1878 2136 2125
Q 2069 2372 1912 2536
Q 1756 2700 1503 2700
Q 1141 2700 942 2361
Q 744 2022 744 1638
z
" transform="scale(0.015625)"/>
       <path id="Cmr10-61" d="M 256 628
Q 256 1009 556 1248
Q 856 1488 1276 1586
Q 1697 1684 2075 1684
L 2075 1947
Q 2075 2131 1994 2304
Q 1913 2478 1759 2589
Q 1606 2700 1422 2700
Q 997 2700 775 2509
Q 897 2509 976 2417
Q 1056 2325 1056 2203
Q 1056 2075 965 1984
Q 875 1894 750 1894
Q 622 1894 531 1984
Q 441 2075 441 2203
Q 441 2541 747 2705
Q 1053 2869 1422 2869
Q 1681 2869 1943 2758
Q 2206 2647 2373 2440
Q 2541 2234 2541 1959
L 2541 519
Q 2541 394 2594 289
Q 2647 184 2759 184
Q 2866 184 2917 290
Q 2969 397 2969 519
L 2969 928
L 3156 928
L 3156 519
Q 3156 375 3081 245
Q 3006 116 2879 39
Q 2753 -38 2606 -38
Q 2419 -38 2283 107
Q 2147 253 2131 453
Q 2013 213 1781 70
Q 1550 -72 1288 -72
Q 1044 -72 808 0
Q 572 72 414 226
Q 256 381 256 628
z
M 775 628
Q 775 403 940 250
Q 1106 97 1331 97
Q 1538 97 1706 200
Q 1875 303 1975 481
Q 2075 659 2075 856
L 2075 1522
Q 1784 1522 1479 1426
Q 1175 1331 975 1128
Q 775 925 775 628
z
" transform="scale(0.015625)"/>
       <path id="Cmr10-6e" d="M 191 0
L 191 225
Q 409 225 550 259
Q 691 294 691 428
L 691 2175
Q 691 2347 639 2423
Q 588 2500 491 2517
Q 394 2534 191 2534
L 191 2759
L 1119 2828
L 1119 2203
Q 1247 2478 1498 2653
Q 1750 2828 2047 2828
Q 2491 2828 2714 2615
Q 2938 2403 2938 1966
L 2938 428
Q 2938 294 3078 259
Q 3219 225 3438 225
L 3438 0
L 1972 0
L 1972 225
Q 2191 225 2331 259
Q 2472 294 2472 428
L 2472 1947
Q 2472 2259 2381 2461
Q 2291 2663 2009 2663
Q 1638 2663 1398 2366
Q 1159 2069 1159 1691
L 1159 428
Q 1159 294 1300 259
Q 1441 225 1656 225
L 1656 0
L 191 0
z
" transform="scale(0.015625)"/>
       <path id="Cmr10-20" transform="scale(0.015625)"/>
       <path id="Cmr10-72" d="M 166 0
L 166 225
Q 384 225 525 259
Q 666 294 666 428
L 666 2175
Q 666 2347 614 2423
Q 563 2500 466 2517
Q 369 2534 166 2534
L 166 2759
L 1081 2828
L 1081 2203
Q 1184 2481 1375 2654
Q 1566 2828 1838 2828
Q 2028 2828 2178 2715
Q 2328 2603 2328 2419
Q 2328 2303 2245 2217
Q 2163 2131 2041 2131
Q 1922 2131 1837 2215
Q 1753 2300 1753 2419
Q 1753 2591 1875 2663
L 1838 2663
Q 1578 2663 1414 2475
Q 1250 2288 1181 2009
Q 1113 1731 1113 1478
L 1113 428
Q 1113 225 1734 225
L 1734 0
L 166 0
z
" transform="scale(0.015625)"/>
       <path id="Cmr10-73" d="M 213 -19
L 213 1025
Q 213 1075 269 1075
L 347 1075
Q 384 1075 397 1025
Q 575 97 1259 97
Q 1563 97 1767 234
Q 1972 372 1972 659
Q 1972 866 1812 1011
Q 1653 1156 1434 1209
L 1006 1294
Q 791 1341 614 1437
Q 438 1534 325 1695
Q 213 1856 213 2069
Q 213 2350 361 2529
Q 509 2709 746 2789
Q 984 2869 1259 2869
Q 1588 2869 1831 2694
L 2016 2853
Q 2016 2869 2047 2869
L 2094 2869
Q 2113 2869 2128 2851
Q 2144 2834 2144 2816
L 2144 1978
Q 2144 1919 2094 1919
L 2016 1919
Q 1959 1919 1959 1978
Q 1959 2313 1773 2516
Q 1588 2719 1253 2719
Q 966 2719 755 2612
Q 544 2506 544 2247
Q 544 2069 695 1955
Q 847 1841 1050 1791
L 1484 1709
Q 1703 1659 1892 1540
Q 2081 1422 2192 1240
Q 2303 1059 2303 831
Q 2303 600 2223 429
Q 2144 259 2001 146
Q 1859 34 1665 -19
Q 1472 -72 1259 -72
Q 859 -72 575 197
L 341 -56
Q 341 -72 306 -72
L 269 -72
Q 213 -72 213 -19
z
" transform="scale(0.015625)"/>
       <path id="Cmr10-69" d="M 197 0
L 197 225
Q 416 225 556 259
Q 697 294 697 428
L 697 2175
Q 697 2422 601 2478
Q 506 2534 225 2534
L 225 2759
L 1147 2828
L 1147 428
Q 1147 294 1269 259
Q 1391 225 1594 225
L 1594 0
L 197 0
z
M 469 3928
Q 469 4069 575 4175
Q 681 4281 819 4281
Q 909 4281 993 4234
Q 1078 4188 1125 4103
Q 1172 4019 1172 3928
Q 1172 3791 1065 3684
Q 959 3578 819 3578
Q 681 3578 575 3684
Q 469 3791 469 3928
z
" transform="scale(0.015625)"/>
       <path id="Cmr10-64" d="M 1563 -72
Q 1184 -72 871 133
Q 559 338 386 672
Q 213 1006 213 1381
Q 213 1769 402 2101
Q 591 2434 916 2631
Q 1241 2828 1631 2828
Q 1866 2828 2075 2729
Q 2284 2631 2438 2456
L 2438 3788
Q 2438 3959 2386 4036
Q 2334 4113 2239 4130
Q 2144 4147 1941 4147
L 1941 4372
L 2888 4441
L 2888 581
Q 2888 413 2939 336
Q 2991 259 3086 242
Q 3181 225 3384 225
L 3384 0
L 2419 -72
L 2419 331
Q 2253 141 2025 34
Q 1797 -72 1563 -72
z
M 909 556
Q 1019 347 1201 222
Q 1384 97 1600 97
Q 1866 97 2087 250
Q 2309 403 2419 647
L 2419 2181
Q 2344 2322 2230 2433
Q 2116 2544 1973 2603
Q 1831 2663 1672 2663
Q 1338 2663 1134 2473
Q 931 2284 850 1990
Q 769 1697 769 1375
Q 769 1119 795 928
Q 822 738 909 556
z
" transform="scale(0.015625)"/>
       <path id="Cmr10-75" d="M 691 763
L 691 2175
Q 691 2347 639 2423
Q 588 2500 491 2517
Q 394 2534 191 2534
L 191 2759
L 1159 2828
L 1159 763
Q 1159 513 1195 373
Q 1231 234 1348 165
Q 1466 97 1722 97
Q 2066 97 2269 384
Q 2472 672 2472 1038
L 2472 2175
Q 2472 2347 2419 2423
Q 2366 2500 2270 2517
Q 2175 2534 1972 2534
L 1972 2759
L 2938 2828
L 2938 581
Q 2938 413 2989 336
Q 3041 259 3137 242
Q 3234 225 3438 225
L 3438 0
L 2491 -72
L 2491 469
Q 2372 228 2159 78
Q 1947 -72 1691 -72
Q 1231 -72 961 123
Q 691 319 691 763
z
" transform="scale(0.015625)"/>
       <path id="Cmr10-6c" d="M 197 0
L 197 225
Q 416 225 556 259
Q 697 294 697 428
L 697 3788
Q 697 3959 645 4036
Q 594 4113 497 4130
Q 400 4147 197 4147
L 197 4372
L 1147 4441
L 1147 428
Q 1147 294 1287 259
Q 1428 225 1644 225
L 1644 0
L 197 0
z
" transform="scale(0.015625)"/>
       <path id="Cmr10-6d" d="M 191 0
L 191 225
Q 409 225 550 259
Q 691 294 691 428
L 691 2175
Q 691 2347 639 2423
Q 588 2500 491 2517
Q 394 2534 191 2534
L 191 2759
L 1119 2828
L 1119 2203
Q 1247 2478 1498 2653
Q 1750 2828 2047 2828
Q 2784 2828 2913 2228
Q 3041 2497 3287 2662
Q 3534 2828 3828 2828
Q 4119 2828 4317 2734
Q 4516 2641 4616 2448
Q 4716 2256 4716 1966
L 4716 428
Q 4716 294 4858 259
Q 5000 225 5216 225
L 5216 0
L 3750 0
L 3750 225
Q 3969 225 4109 259
Q 4250 294 4250 428
L 4250 1947
Q 4250 2269 4159 2466
Q 4069 2663 3788 2663
Q 3419 2663 3178 2366
Q 2938 2069 2938 1691
L 2938 428
Q 2938 294 3078 259
Q 3219 225 3438 225
L 3438 0
L 1972 0
L 1972 225
Q 2191 225 2331 259
Q 2472 294 2472 428
L 2472 1947
Q 2472 2259 2381 2461
Q 2291 2663 2009 2663
Q 1638 2663 1398 2366
Q 1159 2069 1159 1691
L 1159 428
Q 1159 294 1300 259
Q 1441 225 1656 225
L 1656 0
L 191 0
z
" transform="scale(0.015625)"/>
       <path id="Cmr10-70" d="M 166 -1241
L 166 -1019
Q 384 -1019 525 -981
Q 666 -944 666 -813
L 666 2272
Q 666 2447 541 2490
Q 416 2534 166 2534
L 166 2759
L 1113 2828
L 1113 2431
Q 1288 2625 1520 2726
Q 1753 2828 2016 2828
Q 2394 2828 2697 2623
Q 3000 2419 3170 2086
Q 3341 1753 3341 1381
Q 3341 994 3152 659
Q 2963 325 2636 126
Q 2309 -72 1919 -72
Q 1453 -72 1131 306
L 1131 -813
Q 1131 -944 1273 -981
Q 1416 -1019 1631 -1019
L 1631 -1241
L 166 -1241
z
M 1131 622
Q 1244 394 1444 245
Q 1644 97 1881 97
Q 2103 97 2273 215
Q 2444 334 2559 534
Q 2675 734 2729 954
Q 2784 1175 2784 1381
Q 2784 1638 2692 1936
Q 2600 2234 2411 2439
Q 2222 2644 1953 2644
Q 1694 2644 1476 2511
Q 1259 2378 1131 2150
L 1131 622
z
" transform="scale(0.015625)"/>
       <path id="Cmr10-74" d="M 653 769
L 653 2534
L 122 2534
L 122 2700
Q 541 2700 737 3090
Q 934 3481 934 3938
L 1119 3938
L 1119 2759
L 2022 2759
L 2022 2534
L 1119 2534
L 1119 781
Q 1119 516 1208 316
Q 1297 116 1528 116
Q 1747 116 1844 327
Q 1941 538 1941 781
L 1941 1159
L 2125 1159
L 2125 769
Q 2125 569 2051 373
Q 1978 178 1834 53
Q 1691 -72 1484 -72
Q 1100 -72 876 158
Q 653 388 653 769
z
" transform="scale(0.015625)"/>
       <path id="Cmr10-43" d="M 1459 684
Q 1678 406 2006 245
Q 2334 84 2688 84
Q 2984 84 3237 201
Q 3491 319 3680 528
Q 3869 738 3970 1003
Q 4072 1269 4072 1563
Q 4072 1613 4128 1613
L 4206 1613
Q 4256 1613 4256 1550
Q 4256 1216 4128 905
Q 4000 594 3765 358
Q 3531 122 3226 -9
Q 2922 -141 2591 -141
Q 2131 -141 1720 45
Q 1309 231 1004 554
Q 700 878 529 1303
Q 359 1728 359 2188
Q 359 2647 529 3072
Q 700 3497 1004 3822
Q 1309 4147 1720 4330
Q 2131 4513 2591 4513
Q 2919 4513 3219 4370
Q 3519 4228 3744 3969
L 4116 4494
Q 4153 4513 4159 4513
L 4206 4513
Q 4225 4513 4240 4497
Q 4256 4481 4256 4459
L 4256 2731
Q 4256 2675 4206 2675
L 4091 2675
Q 4031 2675 4031 2731
Q 4031 2916 3957 3144
Q 3884 3372 3770 3576
Q 3656 3781 3506 3938
Q 3147 4288 2681 4288
Q 2328 4288 2004 4128
Q 1681 3969 1459 3688
Q 1225 3388 1134 3005
Q 1044 2622 1044 2188
Q 1044 1753 1134 1368
Q 1225 984 1459 684
z
" transform="scale(0.015625)"/>
       <path id="Cmr10-4f" d="M 2491 -141
Q 1881 -141 1395 182
Q 909 506 634 1042
Q 359 1578 359 2169
Q 359 2606 517 3034
Q 675 3463 958 3794
Q 1241 4125 1637 4319
Q 2034 4513 2491 4513
Q 2944 4513 3342 4317
Q 3741 4122 4025 3787
Q 4309 3453 4462 3037
Q 4616 2622 4616 2169
Q 4616 1578 4341 1042
Q 4066 506 3578 182
Q 3091 -141 2491 -141
z
M 1428 691
Q 1616 397 1891 223
Q 2166 50 2491 50
Q 2700 50 2901 134
Q 3103 219 3267 366
Q 3431 513 3547 691
Q 3928 1266 3928 2272
Q 3928 3194 3547 3731
Q 3359 4000 3079 4162
Q 2800 4325 2491 4325
Q 2178 4325 1897 4162
Q 1616 4000 1428 3731
Q 1278 3522 1195 3286
Q 1113 3050 1078 2797
Q 1044 2544 1044 2272
Q 1044 1981 1076 1704
Q 1109 1428 1198 1162
Q 1288 897 1428 691
z
" transform="scale(0.015625)"/>
       <path id="Cmr10-62" d="M 666 0
L 666 3788
Q 666 3959 614 4036
Q 563 4113 466 4130
Q 369 4147 166 4147
L 166 4372
L 1113 4441
L 1113 2438
Q 1219 2556 1361 2645
Q 1503 2734 1665 2781
Q 1828 2828 1997 2828
Q 2284 2828 2529 2712
Q 2775 2597 2956 2394
Q 3138 2191 3239 1927
Q 3341 1663 3341 1381
Q 3341 994 3152 659
Q 2963 325 2636 126
Q 2309 -72 1919 -72
Q 1675 -72 1447 53
Q 1219 178 1069 384
L 850 0
L 666 0
z
M 1131 628
Q 1238 394 1438 245
Q 1638 97 1881 97
Q 2213 97 2417 287
Q 2622 478 2703 768
Q 2784 1059 2784 1381
Q 2784 1922 2644 2203
Q 2581 2328 2473 2434
Q 2366 2541 2233 2602
Q 2100 2663 1953 2663
Q 1697 2663 1478 2527
Q 1259 2391 1131 2163
L 1131 628
z
" transform="scale(0.015625)"/>
      </defs>
      <use xlink:href="#Cmr10-4d"/>
      <use xlink:href="#Cmr10-65" x="91.601562"/>
      <use xlink:href="#Cmr10-61" x="135.986328"/>
      <use xlink:href="#Cmr10-6e" x="185.986328"/>
      <use xlink:href="#Cmr10-20" x="241.503906"/>
      <use xlink:href="#Cmr10-72" x="274.804688"/>
      <use xlink:href="#Cmr10-65" x="313.916016"/>
      <use xlink:href="#Cmr10-73" x="358.300781"/>
      <use xlink:href="#Cmr10-69" x="397.705078"/>
      <use xlink:href="#Cmr10-64" x="425.390625"/>
      <use xlink:href="#Cmr10-75" x="480.908203"/>
      <use xlink:href="#Cmr10-61" x="536.425781"/>
      <use xlink:href="#Cmr10-6c" x="586.425781"/>
      <use xlink:href="#Cmr10-20" x="614.111328"/>
      <use xlink:href="#Cmr10-61" x="647.412109"/>
      <use xlink:href="#Cmr10-6d" x="697.412109"/>
      <use xlink:href="#Cmr10-70" x="780.712891"/>
      <use xlink:href="#Cmr10-6c" x="836.230469"/>
      <use xlink:href="#Cmr10-69" x="863.916016"/>
      <use xlink:href="#Cmr10-74" x="891.601562"/>
      <use xlink:href="#Cmr10-75" x="930.419922"/>
      <use xlink:href="#Cmr10-64" x="985.9375"/>
      <use xlink:href="#Cmr10-65" x="1041.455078"/>
      <use xlink:href="#Cmr10-20" x="1085.839844"/>
      <use xlink:href="#Cmr10-69" x="1119.140625"/>
      <use xlink:href="#Cmr10-6e" x="1146.826172"/>
      <use xlink:href="#Cmr10-20" x="1202.34375"/>
      <use xlink:href="#Cmr10-43" x="1235.644531"/>
      <use xlink:href="#Cmr10-4f" x="1307.861328"/>
      <use xlink:href="#Cmr10-20" x="1385.546875"/>
      <use xlink:href="#Cmr10-62" x="1418.847656"/>
      <use xlink:href="#Cmr10-61" x="1474.365234"/>
      <use xlink:href="#Cmr10-6e" x="1524.365234"/>
      <use xlink:href="#Cmr10-64" x="1579.882812"/>
     </g>
    </g>
   </g>
   <g id="LineCollection_1">
    <path d="M 192.390625 147.859832
L 192.390625 31.2
" clip-path="url(#p41f0108443)" style="fill: none; stroke: #d62728"/>
   </g>
   <g id="line2d_57">
    <path d="M 52.890625 283.2
L 331.890625 283.2
" clip-path="url(#p41f0108443)" style="fill: none; stroke-dasharray: 3.7,1.6; stroke-dashoffset: 0; stroke: #808080"/>
   </g>
   <g id="line2d_58">
    <defs>
     <path id="md678088d01" d="M 0 4
C 1.060812 4 2.078319 3.578535 2.828427 2.828427
C 3.578535 2.078319 4 1.060812 4 0
C 4 -1.060812 3.578535 -2.078319 2.828427 -2.828427
C 2.078319 -3.578535 1.060812 -4 0 -4
C -1.060812 -4 -2.078319 -3.578535 -2.828427 -2.828427
C -3.578535 -2.078319 -4 -1.060812 -4 0
C -4 1.060812 -3.578535 2.078319 -2.828427 2.828427
C -2.078319 3.578535 -1.060812 4 0 4
z
" style="stroke: #d62728"/>
    </defs>
    <g clip-path="url(#p41f0108443)">
     <use xlink:href="#md678088d01" x="192.390625" y="89.529916" style="fill: #d62728; stroke: #d62728"/>
    </g>
   </g>
   <g id="patch_3">
    <path d="M 52.890625 295.8
L 52.890625 18.6
" style="fill: none; stroke: #000000; stroke-width: 0.5; stroke-linejoin: miter; stroke-linecap: square"/>
   </g>
   <g id="patch_4">
    <path d="M 331.890625 295.8
L 331.890625 18.6
" style="fill: none; stroke: #000000; stroke-width: 0.5; stroke-linejoin: miter; stroke-linecap: square"/>
   </g>
   <g id="patch_5">
    <path d="M 52.890625 295.8
L 331.890625 295.8
" style="fill: none; stroke: #000000; stroke-width: 0.5; stroke-linejoin: miter; stroke-linecap: square"/>
   </g>
   <g id="patch_6">
    <path d="M 52.890625 18.6
L 331.890625 18.6
" style="fill: none; stroke: #000000; stroke-width: 0.5; stroke-linejoin: miter; stroke-linecap: square"/>
   </g>
   <g id="text_8">
    <!-- Bootstrap CI: feature amplitude (95%) -->
    <g transform="translate(90.168438 12.6) scale(0.12 -0.12)">
     <defs>
      <path id="Cmr10-42" d="M 219 0
L 219 225
Q 878 225 878 428
L 878 3944
Q 878 4147 219 4147
L 219 4372
L 2572 4372
Q 2897 4372 3228 4245
Q 3559 4119 3776 3870
Q 3994 3622 3994 3284
Q 3994 2894 3673 2630
Q 3353 2366 2925 2284
Q 3203 2284 3497 2131
Q 3791 1978 3978 1722
Q 4166 1466 4166 1178
Q 4166 828 3958 559
Q 3750 291 3419 145
Q 3088 0 2753 0
L 219 0
z
M 1434 428
Q 1434 291 1512 258
Q 1591 225 1759 225
L 2572 225
Q 2822 225 3036 356
Q 3250 488 3375 708
Q 3500 928 3500 1178
Q 3500 1422 3397 1655
Q 3294 1888 3101 2038
Q 2909 2188 2663 2188
L 1434 2188
L 1434 428
z
M 1434 2356
L 2394 2356
Q 2588 2356 2758 2426
Q 2928 2497 3064 2630
Q 3200 2763 3273 2930
Q 3347 3097 3347 3284
Q 3347 3450 3292 3603
Q 3238 3756 3131 3881
Q 3025 4006 2881 4076
Q 2738 4147 2572 4147
L 1759 4147
Q 1644 4147 1580 4137
Q 1516 4128 1475 4083
Q 1434 4038 1434 3944
L 1434 2356
z
" transform="scale(0.015625)"/>
      <path id="Cmr10-6f" d="M 1600 -72
Q 1216 -72 887 123
Q 559 319 368 647
Q 178 975 178 1363
Q 178 1656 283 1928
Q 388 2200 583 2414
Q 778 2628 1037 2748
Q 1297 2869 1600 2869
Q 1994 2869 2317 2661
Q 2641 2453 2828 2104
Q 3016 1756 3016 1363
Q 3016 978 2825 648
Q 2634 319 2307 123
Q 1981 -72 1600 -72
z
M 1600 116
Q 2113 116 2284 487
Q 2456 859 2456 1434
Q 2456 1756 2422 1967
Q 2388 2178 2272 2350
Q 2200 2456 2089 2536
Q 1978 2616 1854 2658
Q 1731 2700 1600 2700
Q 1400 2700 1220 2609
Q 1041 2519 922 2350
Q 803 2169 770 1951
Q 738 1734 738 1434
Q 738 1075 800 789
Q 863 503 1052 309
Q 1241 116 1600 116
z
" transform="scale(0.015625)"/>
      <path id="Cmr10-49" d="M 166 0
L 166 225
Q 856 225 856 428
L 856 3944
Q 856 4147 166 4147
L 166 4372
L 2144 4372
L 2144 4147
Q 1453 4147 1453 3944
L 1453 428
Q 1453 225 2144 225
L 2144 0
L 166 0
z
" transform="scale(0.015625)"/>
      <path id="Cmr10-3a" d="M 538 353
Q 538 497 644 600
Q 750 703 891 703
Q 978 703 1062 656
Q 1147 609 1194 525
Q 1241 441 1241 353
Q 1241 213 1137 106
Q 1034 0 891 0
Q 750 0 644 106
Q 538 213 538 353
z
M 538 2406
Q 538 2497 584 2578
Q 631 2659 714 2709
Q 797 2759 891 2759
Q 981 2759 1064 2709
Q 1147 2659 1194 2578
Q 1241 2497 1241 2406
Q 1241 2263 1139 2158
Q 1038 2053 891 2053
Q 747 2053 642 2158
Q 538 2263 538 2406
z
" transform="scale(0.015625)"/>
      <path id="Cmr10-66" d="M 206 0
L 206 225
Q 422 225 562 259
Q 703 294 703 428
L 703 2534
L 213 2534
L 213 2759
L 703 2759
L 703 3525
Q 703 3731 789 3911
Q 875 4091 1020 4225
Q 1166 4359 1355 4436
Q 1544 4513 1747 4513
Q 1963 4513 2136 4384
Q 2309 4256 2309 4044
Q 2309 3922 2226 3839
Q 2144 3756 2022 3756
Q 1900 3756 1814 3839
Q 1728 3922 1728 4044
Q 1728 4244 1900 4313
Q 1797 4347 1716 4347
Q 1528 4347 1395 4214
Q 1263 4081 1197 3890
Q 1131 3700 1131 3513
L 1131 2759
L 1869 2759
L 1869 2534
L 1153 2534
L 1153 428
Q 1153 297 1340 261
Q 1528 225 1772 225
L 1772 0
L 206 0
z
" transform="scale(0.015625)"/>
      <path id="Cmr10-28" d="M 1984 -1588
Q 1628 -1306 1370 -942
Q 1113 -578 948 -165
Q 784 247 703 697
Q 622 1147 622 1600
Q 622 2059 703 2509
Q 784 2959 951 3375
Q 1119 3791 1378 4153
Q 1638 4516 1984 4788
Q 1984 4800 2016 4800
L 2075 4800
Q 2094 4800 2109 4783
Q 2125 4766 2125 4744
Q 2125 4716 2113 4703
Q 1800 4397 1592 4047
Q 1384 3697 1257 3301
Q 1131 2906 1075 2482
Q 1019 2059 1019 1600
Q 1019 -434 2106 -1491
Q 2125 -1509 2125 -1544
Q 2125 -1559 2108 -1579
Q 2091 -1600 2075 -1600
L 2016 -1600
Q 1984 -1600 1984 -1588
z
" transform="scale(0.015625)"/>
      <path id="Cmr10-39" d="M 722 269
Q 897 63 1331 63
Q 1575 63 1786 228
Q 1997 394 2113 634
Q 2247 906 2284 1214
Q 2322 1522 2322 1978
Q 2213 1719 2008 1553
Q 1803 1388 1538 1388
Q 1166 1388 873 1589
Q 581 1791 425 2120
Q 269 2450 269 2822
Q 269 3206 444 3539
Q 619 3872 928 4067
Q 1238 4263 1631 4263
Q 2019 4263 2280 4052
Q 2541 3841 2678 3508
Q 2816 3175 2870 2803
Q 2925 2431 2925 2069
Q 2925 1575 2744 1061
Q 2563 547 2202 203
Q 1841 -141 1331 -141
Q 953 -141 690 37
Q 428 216 428 575
Q 428 706 517 795
Q 606 884 738 884
Q 866 884 955 795
Q 1044 706 1044 575
Q 1044 450 953 359
Q 863 269 738 269
L 722 269
z
M 1563 1556
Q 1825 1556 1992 1732
Q 2159 1909 2234 2171
Q 2309 2434 2309 2694
L 2309 2816
L 2309 2841
Q 2309 3322 2168 3700
Q 2028 4078 1631 4078
Q 1378 4078 1220 3967
Q 1063 3856 988 3672
Q 913 3488 892 3278
Q 872 3069 872 2822
Q 872 2459 906 2203
Q 941 1947 1094 1751
Q 1247 1556 1563 1556
z
" transform="scale(0.015625)"/>
      <path id="Cmr10-25" d="M 891 -231
Q 891 -194 909 -166
L 3809 4153
Q 3425 3938 2963 3938
Q 2463 3938 2003 4197
Q 2131 3891 2131 3513
Q 2131 3306 2082 3086
Q 2034 2866 1934 2670
Q 1834 2475 1676 2348
Q 1519 2222 1306 2222
Q 1006 2222 790 2422
Q 575 2622 467 2922
Q 359 3222 359 3513
Q 359 3797 467 4098
Q 575 4400 790 4600
Q 1006 4800 1306 4800
Q 1544 4800 1741 4609
Q 2256 4103 2963 4103
Q 3341 4103 3669 4270
Q 3997 4438 4206 4750
Q 4238 4800 4306 4800
Q 4363 4800 4398 4765
Q 4434 4731 4434 4672
Q 4434 4638 4416 4609
L 1113 -319
Q 1084 -359 1019 -359
Q 966 -359 928 -318
Q 891 -278 891 -231
z
M 1306 2388
Q 1622 2388 1784 2764
Q 1947 3141 1947 3513
Q 1947 3722 1880 3989
Q 1813 4256 1669 4445
Q 1525 4634 1306 4634
Q 988 4634 884 4279
Q 781 3925 781 3506
Q 781 3103 887 2745
Q 994 2388 1306 2388
z
M 4141 -359
Q 3841 -359 3625 -159
Q 3409 41 3301 342
Q 3194 644 3194 934
Q 3194 1219 3301 1520
Q 3409 1822 3625 2022
Q 3841 2222 4141 2222
Q 4419 2222 4606 2011
Q 4794 1800 4880 1503
Q 4966 1206 4966 934
Q 4966 728 4917 509
Q 4869 291 4770 92
Q 4672 -106 4514 -232
Q 4356 -359 4141 -359
z
M 4141 -191
Q 4356 -191 4503 1
Q 4650 194 4715 459
Q 4781 725 4781 934
Q 4781 1303 4618 1678
Q 4456 2053 4141 2053
Q 3822 2053 3719 1698
Q 3616 1344 3616 928
Q 3616 522 3722 165
Q 3828 -191 4141 -191
z
" transform="scale(0.015625)"/>
      <path id="Cmr10-29" d="M 416 -1600
Q 359 -1600 359 -1544
Q 359 -1516 372 -1503
Q 1466 -434 1466 1600
Q 1466 3634 384 4691
Q 359 4706 359 4744
Q 359 4766 376 4783
Q 394 4800 416 4800
L 475 4800
Q 494 4800 506 4788
Q 966 4425 1272 3906
Q 1578 3388 1720 2800
Q 1863 2213 1863 1600
Q 1863 1147 1786 708
Q 1709 269 1542 -157
Q 1375 -584 1119 -945
Q 863 -1306 506 -1588
Q 494 -1600 475 -1600
L 416 -1600
z
" transform="scale(0.015625)"/>
     </defs>
     <use xlink:href="#Cmr10-42"/>
     <use xlink:href="#Cmr10-6f" x="70.800781"/>
     <use xlink:href="#Cmr10-6f" x="120.800781"/>
     <use xlink:href="#Cmr10-74" x="170.800781"/>
     <use xlink:href="#Cmr10-73" x="209.619141"/>
     <use xlink:href="#Cmr10-74" x="249.023438"/>
     <use xlink:href="#Cmr10-72" x="287.841797"/>
     <use xlink:href="#Cmr10-61" x="326.953125"/>
     <use xlink:href="#Cmr10-70" x="376.953125"/>
     <use xlink:href="#Cmr10-20" x="432.470703"/>
     <use xlink:href="#Cmr10-43" x="465.771484"/>
     <use xlink:href="#Cmr10-49" x="537.988281"/>
     <use xlink:href="#Cmr10-3a" x="574.072266"/>
     <use xlink:href="#Cmr10-20" x="601.757812"/>
     <use xlink:href="#Cmr10-66" x="635.058594"/>
     <use xlink:href="#Cmr10-65" x="665.576172"/>
     <use xlink:href="#Cmr10-61" x="709.960938"/>
     <use xlink:href="#Cmr10-74" x="759.960938"/>
     <use xlink:href="#Cmr10-75" x="798.779297"/>
     <use xlink:href="#Cmr10-72" x="854.296875"/>
     <use xlink:href="#Cmr10-65" x="893.408203"/>
     <use xlink:href="#Cmr10-20" x="937.792969"/>
     <use xlink:href="#Cmr10-61" x="971.09375"/>
     <use xlink:href="#Cmr10-6d" x="1021.09375"/>
     <use xlink:href="#Cmr10-70" x="1104.394531"/>
     <use xlink:href="#Cmr10-6c" x="1159.912109"/>
     <use xlink:href="#Cmr10-69" x="1187.597656"/>
     <use xlink:href="#Cmr10-74" x="1215.283203"/>
     <use xlink:href="#Cmr10-75" x="1254.101562"/>
     <use xlink:href="#Cmr10-64" x="1309.619141"/>
     <use xlink:href="#Cmr10-65" x="1365.136719"/>
     <use xlink:href="#Cmr10-20" x="1409.521484"/>
     <use xlink:href="#Cmr10-28" x="1442.822266"/>
     <use xlink:href="#Cmr10-39" x="1481.640625"/>
     <use xlink:href="#Cmr10-35" x="1531.640625"/>
     <use xlink:href="#Cmr10-25" x="1581.640625"/>
     <use xlink:href="#Cmr10-29" x="1664.941406"/>
    </g>
   </g>
   <g id="legend_1">
    <g id="line2d_59">
     <path d="M 221.854688 31.6
L 231.854688 31.6
L 241.854688 31.6
" style="fill: none; stroke-dasharray: 3.7,1.6; stroke-dashoffset: 0; stroke: #808080"/>
    </g>
    <g id="text_9">
     <!-- zero (no feature) -->
     <g transform="translate(249.854688 35.1) scale(0.1 -0.1)">
      <defs>
       <path id="Cmr10-7a" d="M 250 0
Q 178 0 178 72
L 178 122
Q 178 147 197 166
L 1984 2591
L 1409 2591
Q 1138 2591 961 2556
Q 784 2522 670 2426
Q 556 2331 504 2164
Q 453 1997 453 1703
L 269 1703
L 341 2759
L 2484 2759
Q 2513 2759 2533 2739
Q 2553 2719 2553 2688
L 2553 2650
Q 2553 2631 2541 2606
L 750 184
L 1363 184
Q 1641 184 1827 218
Q 2013 253 2144 384
Q 2266 506 2311 712
Q 2356 919 2381 1222
L 2566 1222
L 2456 0
L 250 0
z
" transform="scale(0.015625)"/>
      </defs>
      <use xlink:href="#Cmr10-7a"/>
      <use xlink:href="#Cmr10-65" x="44.384766"/>
      <use xlink:href="#Cmr10-72" x="88.769531"/>
      <use xlink:href="#Cmr10-6f" x="127.880859"/>
      <use xlink:href="#Cmr10-20" x="177.880859"/>
      <use xlink:href="#Cmr10-28" x="211.181641"/>
      <use xlink:href="#Cmr10-6e" x="250"/>
      <use xlink:href="#Cmr10-6f" x="305.517578"/>
      <use xlink:href="#Cmr10-20" x="355.517578"/>
      <use xlink:href="#Cmr10-66" x="388.818359"/>
      <use xlink:href="#Cmr10-65" x="419.335938"/>
      <use xlink:href="#Cmr10-61" x="463.720703"/>
      <use xlink:href="#Cmr10-74" x="513.720703"/>
      <use xlink:href="#Cmr10-75" x="552.539062"/>
      <use xlink:href="#Cmr10-72" x="608.056641"/>
      <use xlink:href="#Cmr10-65" x="647.167969"/>
      <use xlink:href="#Cmr10-29" x="691.552734"/>
     </g>
    </g>
   </g>
  </g>
 </g>
 <defs>
  <clipPath id="p41f0108443">
   <rect x="52.890625" y="18.6" width="279" height="277.2"/>
  </clipPath>
 </defs>
</svg>
